<svg xmlns="http://www.w3.org/2000/svg" id="A" version="1.1" viewBox="0 0 396.9 226.8"><defs><style>.st1{fill:#fff}</style></defs><path id="d" d="M0 0v170.1h56.7v56.7h340.1V113.4H170.1V0H0z" style="fill:#cf0039"/><path id="a" d="M89 76.9c-1.7-5.1-3.5-10.3-4.3-13.5-.9 3.2-2.6 8.4-4.3 13.5l-5.6 15.7h19.8L89 76.9Zm18.3 51.4-6.8-19.3H68.9l-6.8 19.3H43.6l33.1-86.5h16.8l32.9 86.5h-19Z" class="st1"/><path id="t" d="M131 106.4c-.4 1.2.2 2.5 1.5 2.9l17.2 6.1c1.2.4 2.5-.2 2.9-1.5l2-6c.4-1.2-.2-2.5-1.5-2.9l-17.2-6.1c-1.2-.4-2.5.2-2.9 1.5l-2 6ZM15.1 108l2 6c.4 1.2 1.7 1.9 2.9 1.5l17.2-6.1c1.2-.4 1.9-1.7 1.5-2.9l-2-6c-.4-1.2-1.7-1.9-2.9-1.5l-17.2 6.1c-1.2.4-1.9 1.7-1.5 2.9m25.4-29.4-24.1-8.1c-1.2-.4-2.5.2-2.9 1.5l-2 6c-.4 1.2.2 2.5 1.5 2.9L37.1 89c1.2.4 2.5-.2 2.9-1.5l2-6c.4-1.2-.2-2.5-1.5-2.9m12.1-12.9c1-.8 1.2-2.2.4-3.2L42.1 47.9c-.8-1-2.2-1.2-3.2-.4l-5 3.9c-1 .8-1.2 2.2-.4 3.2l10.9 14.6c.8 1 2.2 1.2 3.2.4l5-3.9Zm83.6-11.2c.8-1 .6-2.5-.4-3.2l-5-3.9c-1-.8-2.5-.6-3.2.4l-10.9 14.6c-.8 1-.6 2.5.4 3.2l5 3.9c1 .8 2.5.6 3.2-.4l10.9-14.6Zm22 23.4-2-6c-.4-1.2-1.7-1.9-2.9-1.5l-24.1 8.1c-1.2.4-1.9 1.7-1.5 2.9l2 6c.4 1.2 1.7 1.9 2.9 1.5l24.1-8.1c1.2-.4 1.9-1.7 1.5-2.9" style="fill:#f18a00"/><path id="s" d="M285.8 186.3v24.4c0 .7.6 1.3 1.3 1.3h3.2c.7 0 1.3-.5 1.3-1.3V194c2.2-2.3 4.1-3.5 5.9-3.5s2.6 1.8 2.6 7.4v12.8c0 .7.6 1.3 1.3 1.3h3.2c.7 0 1.3-.5 1.3-1.3V196c0-7.2-2.2-11.2-7.4-11.2s-4.4.8-7 2.9v-1.4c0-.7-.6-1.3-1.3-1.3H287c-.7 0-1.3.6-1.3 1.3m-46.7 8.6c2.6-3.1 5.3-4.5 7.4-4.5s3.6 1.5 3.5 8c0 6.3-.6 8-2.8 8H239v-11.5Zm-5.8-8.4v32.9c0 .9.7 1.5 1.6 1.5h2.7c.9 0 1.6-.7 1.6-1.5v-7.5h8.4c5.5 0 8.1-2.5 8.1-13.4s-1.8-13.7-8.1-13.7-5.3.8-8.5 3.5v-1.7c0-.9-.7-1.5-1.6-1.5h-2.7c-.9 0-1.6.7-1.6 1.5m-140.7 9.6H80.3V187l6-4.4 6 4.4v9.2Zm6 14.5v-26.1c0-.3 0-.7-.4-.9l-11-8.1c-.3-.2-.5-.2-.8-.2s-.5 0-.8.2l-11 8.1c-.3.2-.4.6-.4.9v26.1c0 .7.6 1.3 1.3 1.3h3.5c.7 0 1.3-.5 1.3-1.3v-8.8h12.1v8.8c0 .7.6 1.3 1.3 1.3H97c.7 0 1.3-.5 1.3-1.3m27 0V196c0-7.2-2.2-11.2-7.4-11.2s-4.4.8-7 2.9v-1.4c0-.7-.6-1.3-1.3-1.3h-3.2c-.7 0-1.3.6-1.3 1.3v24.4c0 .7.6 1.3 1.3 1.3h3.2c.7 0 1.3-.5 1.3-1.3V194c2.2-2.3 4.1-3.5 5.9-3.5s2.6 1.8 2.6 7.4v12.8c0 .7.6 1.3 1.3 1.3h3.2c.7 0 1.3-.5 1.3-1.3m19.8-.1v-3c0-.7-.5-1.3-1.3-1.3h-3.1c-2.1 0-2.6-1.7-2.6-5.7v-10h3.4c.7 0 1.3-.6 1.3-1.3v-3c0-.7-.5-1.3-1.3-1.3H138v-5.5c0-.7-.6-1.3-1.3-1.3h-3.2c-.7 0-1.3.5-1.3 1.3v5.5h-1.8c-.7 0-1.3.6-1.3 1.3v3c0 .7.6 1.3 1.3 1.3h1.8v11.3c0 8.2 2.9 10.1 7.3 10.1h4.2c.7 0 1.3-.6 1.3-1.3m37.6-5.7c.3-.2.4-.6.4-.9v-17.8c0-.7-.6-1.3-1.3-1.3h-3.5c-.7 0-1.3.5-1.3 1.3v14.8l-3.9 3.8-3.9-3.8v-14.8c0-.7-.6-1.3-1.3-1.3h-3.5c-.7 0-1.3.5-1.3 1.3v14.8l-3.9 3.8-3.9-3.8v-14.8c0-.7-.6-1.3-1.3-1.3h-3.5c-.7 0-1.3.5-1.3 1.3v17.8c0 .3 0 .7.4.9l8.9 6.9c.3.2.5.2.8.2s.5 0 .8-.2l6.2-4.8 6.2 4.8c.3.2.5.2.8.2s.5 0 .8-.2l8.9-6.9Zm19.2-54.8h-12.1V141l6-4.4 6 4.4v9.2Zm6 14.5v-26.1c0-.3 0-.7-.4-.9l-11-8.1c-.3-.2-.5-.2-.8-.2s-.5 0-.8.2l-11 8.1c-.3.2-.4.6-.4.9v26.1c0 .7.6 1.3 1.3 1.3h3.5c.7 0 1.3-.5 1.3-1.3v-8.8h12.1v8.8c0 .7.6 1.3 1.3 1.3h3.5c.7 0 1.3-.5 1.3-1.3m-13.9 31.6c.2-5.3 1.1-5.9 5-5.9h.3c3.9 0 4.9.5 5.1 5.9h-10.3Zm0 4.7h14.4c.9 0 1.6-.7 1.6-1.6v-1.7c0-9.8-2-13-10.7-13h-.3c-8.9 0-10.6 3.3-10.6 13.5v.1c0 9.7 4.5 13.7 12.3 13.7s4.6-.6 8.8-2.8c.4-.2.6-.6.6-1s-.2-.8-.4-1.2l-.9-2.1c-.2-.5-.6-.7-.9-.7s-.7 0-1.2.3c-2.1 1.1-3.8 1.7-6 1.8-5.2 0-6.4-2.2-6.6-5.5m31.9-36.2v-3c0-.7-.5-1.3-1.3-1.3h-1.8v-30.8c0-.7-.6-1.3-1.3-1.3h-6.5c-.7 0-1.3.6-1.3 1.3v3c0 .7.5 1.3 1.3 1.3h2v30.8c0 .7.4 1.1 1 1.3s6.6 0 6.6 0c.7 0 1.3-.6 1.3-1.3m3 24.5v-2.8c0-.7-.8-1.5-2.3-1.5-2.5 0-4.5 1.7-5.4 2.8v-1.3c0-.7-.6-1.3-1.3-1.3h-3.2c-.7 0-1.3.5-1.3 1.3v24.4c0 .7.6 1.3 1.3 1.3h3.2c.7 0 1.3-.5 1.3-1.3v-17.9c1.7-1.6 3-2.4 4.5-2.4h1.9c.7 0 1.3-.6 1.3-1.3m12.8-24.5v-3c0-.7-.5-1.3-1.3-1.3h-1.8v-30.8c0-.7-.6-1.3-1.3-1.3h-6.5c-.7 0-1.3.6-1.3 1.3v3c0 .7.5 1.3 1.3 1.3h2v30.8c0 .7.4 1.1 1 1.3s6.6 0 6.6 0c.7 0 1.3-.6 1.3-1.3m10.4-14.3c.2-5.3 1.1-5.9 5-5.9h.3c3.9 0 4.9.5 5.1 5.9h-10.3Zm0 4.7h14.4c.9 0 1.5-.7 1.5-1.6v-1.7c0-9.8-2-13-10.7-13h-.3c-8.9 0-10.6 3.3-10.6 13.5v.1c0 9.7 4.5 13.7 12.3 13.7s4.6-.6 8.8-2.8c.4-.2.6-.6.6-1s-.2-.8-.4-1.2l-.9-2.1c-.2-.5-.6-.7-.9-.7s-.7 0-1.2.3c-2.1 1.1-3.8 1.7-6 1.8-5.2 0-6.4-2.2-6.6-5.5m23.2 41.5h-10.3c.2-5.3 1.1-5.9 5-5.9h.3c3.9 0 4.9.5 5.1 5.9m-5.2-11.5h-.3c-8.9 0-10.6 3.3-10.6 13.5v.1c0 9.7 4.5 13.7 12.3 13.7s4.6-.6 8.8-2.8c.4-.2.6-.6.6-1s-.2-.8-.4-1.2l-.9-2.1c-.2-.5-.6-.7-.9-.7s-.7 0-1.2.3c-2.1 1.1-3.8 1.7-6 1.8-5.2 0-6.4-2.2-6.6-5.5h14.4c.9 0 1.5-.7 1.5-1.6v-1.7c0-9.8-2-13-10.7-13m36.5-19.9V150c0-7.2-2.2-11.2-7.4-11.2s-3.7.4-7.2 2.9c-1.2-1.9-3-2.9-5.5-2.9s-4.9 1.7-5.7 2.8v-1.3c0-.7-.6-1.3-1.3-1.3h-3.2c-.7 0-1.3.5-1.3 1.3v24.4c0 .7.6 1.3 1.3 1.3h3.2c.7 0 1.3-.5 1.3-1.3V147c1.7-1.7 3-2.6 4.5-2.6 2.4 0 2.7 1.8 2.7 7.4v12.8c0 .7.6 1.3 1.3 1.3h3.2c.7 0 1.3-.5 1.3-1.3v-14.7c0-1.1 0-2.2-.2-3.2 1.6-1.5 3.1-2.4 4.5-2.4 2.3 0 2.6 1.8 2.6 7.4v12.8c0 .7.6 1.3 1.3 1.3h3.2c.7 0 1.3-.5 1.3-1.3m10.1 34c0-6.2.5-7.9 2.8-7.9h8.2v11.7c-2.7 3-4 4.2-7.2 4.2s-3.8-1.2-3.8-8m-5.6-.1c0 9.4 2.4 13.8 8.8 13.8s4.6-.8 7.8-3.5v1.7c0 .9.7 1.5 1.6 1.5h2.7c.9 0 1.6-.7 1.6-1.5v-23.9c0-.9-.7-1.5-1.6-1.5h-12c-5.5 0-8.8 2.5-8.8 13.4m18.5-42.1c-2.7 3-4 4.2-7.2 4.2s-3.8-1.2-3.8-8 .5-7.9 2.8-7.9h8.2v11.7Zm5.9 8.1v-23.9c0-.9-.7-1.5-1.6-1.5h-12c-5.5 0-8.8 2.5-8.8 13.4s2.4 13.8 8.8 13.8 4.6-.8 7.8-3.5v1.7c0 .9.7 1.5 1.6 1.5h2.7c.9 0 1.6-.7 1.6-1.5m11.7 26.2h8.2v11.7c-2.7 3-4 4.2-7.2 4.2s-3.8-1.2-3.8-8 .5-7.9 2.8-7.9m.4-5.6c-5.5 0-8.8 2.5-8.8 13.4s2.4 13.8 8.8 13.8 4.6-.8 7.8-3.5v1.7c0 .9.7 1.5 1.6 1.5h2.7c.9 0 1.6-.7 1.6-1.5v-23.9c0-.9-.7-1.5-1.6-1.5h-12Zm11.4-28.7c-2.7 3-4 4.2-7.2 4.2s-3.8-1.2-3.8-8 .5-7.9 2.8-7.9h8.2v11.7Zm5.8 8.1v-23.9c0-.9-.7-1.5-1.6-1.5h-12c-5.5 0-8.8 2.5-8.8 13.4s2.4 13.8 8.8 13.8 4.6-.8 7.8-3.5v1.7c0 .9.7 1.5 1.6 1.5h2.7c.9 0 1.6-.7 1.6-1.5m16.6.2v-3c0-.7-.5-1.3-1.3-1.3h-1.8v-30.8c0-.7-.6-1.3-1.3-1.3h-6.5c-.7 0-1.3.6-1.3 1.3v3c0 .7.5 1.3 1.3 1.3h2v30.8c0 .7.4 1.1 1 1.3s6.6 0 6.6 0c.7 0 1.3-.6 1.3-1.3m0 24.5v-2.8c0-.7-.8-1.5-2.3-1.5-2.5 0-4.5 1.7-5.4 2.8v-1.3c0-.7-.6-1.3-1.3-1.3h-3.2c-.7 0-1.3.5-1.3 1.3v24.4c0 .7.6 1.3 1.3 1.3h3.2c.7 0 1.3-.5 1.3-1.3v-17.9c1.7-1.6 3-2.4 4.5-2.4h1.9c.7 0 1.3-.6 1.3-1.3" class="st1"/></svg>